<?xml version="1.0" encoding="utf-8"?>
<!-- Generator: Adobe Illustrator 28.1.0, SVG Export Plug-In . SVG Version: 6.00 Build 0)  -->
<svg version="1.1" id="Capa_1" xmlns="http://www.w3.org/2000/svg" xmlns:xlink="http://www.w3.org/1999/xlink" x="0px" y="0px"
	 viewBox="0 0 350 95.9" style="enable-background:new 0 0 350 95.9;" xml:space="preserve">
<style type="text/css">
	.st0{fill:#372E2C;}
</style>
<g>
	<path id="SVGID_4_" class="st0" d="M280,0.5L280,0.5l-37.3,32.2c0,0-0.1,0.2-0.3,0.3c0,0.1-0.1,0.4-0.1,0.4l-0.3,3.7
		c0,0,0,0.1,0.3,0.2c0.1,0.1,0.4,0,0.4,0l33.2-14.5c0,0,0.4-0.2,0.5-0.4c0.1-0.2,0.3-0.4,0.3-0.4L281,2l-2.5,20c0,0,0,0.2,0,0.4
		c0.1,0.3,0.5,0.6,0.5,0.6l27,18.3c0.3,0.2,0.7,0.3,0.9,0.3c0.4,0,0.8-0.1,1-0.3l37-32.1c0,0,0.5-0.5,0.5-0.7
		c0.1-0.2,0.1-0.4,0.1-0.4l0.3-3.7c0,0,0-0.2-0.1-0.2c-0.3-0.1-0.4,0-0.4,0l-33.2,14.5c0,0-0.4,0.2-0.7,0.5
		c-0.1,0.1-0.1,0.3-0.1,0.3l-4.3,20l2.5-20c0,0,0-0.2,0-0.4c-0.1-0.3-0.5-0.6-0.5-0.6L282.4,0.4l0,0c-0.3-0.2-0.8-0.4-1.2-0.4
		C280.8,0.1,280.4,0.3,280,0.5"/>
	<path class="st0" d="M44.1,74.2c-1.8,1.7-4.4,3-7.7,3.9c-3.3,0.9-7.1,1.4-11.1,1.4c-4.2,0-8-0.7-11.1-2.1C11,76,8.5,73.9,6.7,71.2
		c-1.7-2.7-2.6-5.9-2.6-9.5v-2.5c0-3.7,0.8-7,2.5-9.7s4.1-4.8,7.2-6.3c3.1-1.5,6.8-2.2,11-2.2c5.8,0,10.3,1.1,13.6,3.2
		c3.3,2.1,5.2,5.2,5.9,9.3h-9.8c-0.4-2.1-1.4-3.7-3-4.7s-3.7-1.5-6.4-1.5c-3.4,0-6,1-7.9,3c-1.8,2-2.7,4.9-2.7,8.8v2.4
		c0,3.9,0.9,6.9,2.9,8.9c2,2,4.8,3,8.6,3s6.5-0.6,8.1-1.9V65h-9.2v-5.7h19.4v14.9H44.1z"/>
	<rect x="52.2" y="39.3" class="st0" width="9.8" height="39.6"/>
	<path class="st0" d="M68.4,64.7c0-2.8,0.7-5.2,2.1-7.4c1.4-2.2,3.4-3.8,6-5s5.6-1.8,9.2-1.8c5,0,8.9,1.2,12,3.5
		c3.1,2.3,4.8,5.4,5.2,9.4l0.1,1.9c0,4.3-1.6,7.7-4.7,10.3c-3.1,2.6-7.3,3.9-12.6,3.9c-5.2,0-9.4-1.3-12.6-3.9
		c-3.1-2.6-4.7-6.1-4.7-10.5v-0.4H68.4z M78.2,65.2c0,2.6,0.7,4.7,2,6.1c1.3,1.4,3.1,2.1,5.6,2.1c2.4,0,4.2-0.7,5.5-2.1
		c1.3-1.4,2-3.6,2-6.6c0-2.6-0.7-4.6-2-6s-3.1-2.1-5.6-2.1c-2.4,0-4.2,0.7-5.5,2.1S78.2,62.3,78.2,65.2"/>
	<path class="st0" d="M141.8,65.2c0,4.5-1.3,7.9-3.8,10.4c-2.5,2.5-6,3.8-10.5,3.8c-3.9,0-7.1-1.2-9.4-3.5l-0.4,3H109V39.3h9.7v14.2
		c2.2-2,5.2-3,8.9-3c4.4,0,8,1.3,10.5,3.7c2.5,2.5,3.8,6,3.8,10.6C141.8,64.8,141.8,65.2,141.8,65.2z M132.1,64.7
		c0-2.8-0.5-4.9-1.7-6.2c-1.2-1.3-2.9-2-5.2-2c-3.1,0-5.2,1-6.4,2.9v11c1.2,2,3.4,2.9,6.4,2.9c3.1,0,5.2-1.2,6.1-3.6
		C131.9,68.7,132.1,67,132.1,64.7"/>
	<path class="st0" d="M169,78.9c-0.4-0.7-0.8-1.5-0.9-2.5c-2.4,2-5.4,3-9.2,3c-3.5,0-6.5-0.8-8.9-2.4c-2.4-1.6-3.5-3.6-3.5-6
		c0-3,1.4-5.2,4.3-6.8c2.9-1.6,7.1-2.4,12.4-2.4h4.4v-1.6c0-1.3-0.4-2.3-1.3-3.1c-0.9-0.8-2.2-1.2-4.1-1.2c-1.7,0-2.9,0.3-3.9,0.9
		c-0.9,0.6-1.4,1.4-1.4,2.5h-9.8c0-1.6,0.7-3.1,2-4.5s3.1-2.5,5.5-3.2c2.4-0.8,5.1-1.2,8-1.2c4.4,0,8.1,0.9,10.7,2.6
		s3.9,4.1,3.9,7.3v12.1c0,2.6,0.5,4.6,1.4,6v0.4L169,78.9L169,78.9z M160.9,73.7c1.4,0,2.7-0.2,3.9-0.7c1.2-0.5,2.1-1.1,2.7-2v-4.8
		h-3.7c-4.8,0-7.5,1.3-7.7,3.9v0.4c0,0.9,0.4,1.7,1.3,2.3C158.3,73.4,159.5,73.7,160.9,73.7"/>
	<rect x="185.4" y="39.3" class="st0" width="9.8" height="39.6"/>
	<path class="st0" d="M223,71.2c0-0.9-0.7-1.6-1.8-2.2c-1.2-0.5-3-1-5.6-1.4c-8.6-1.4-13-4.2-13-8.4c0-2.5,1.3-4.5,4.1-6.2
		s6.1-2.5,10.6-2.5c4.6,0,8.4,0.8,11.1,2.5c2.7,1.7,4.2,3.8,4.2,6.5h-9.7c0-1.1-0.4-1.9-1.3-2.6c-0.9-0.7-2.4-1-4.2-1
		c-1.7,0-2.9,0.3-3.8,0.9c-0.9,0.6-1.3,1.3-1.3,2.2c0,0.8,0.5,1.5,1.6,2c1,0.5,2.7,0.9,5.2,1.3s4.4,0.8,6.1,1.2
		c5.1,1.4,7.7,3.9,7.7,7.5c0,2.5-1.4,4.6-4.3,6.2c-2.9,1.6-6.5,2.4-11,2.4c-3,0-5.8-0.4-8.1-1.3c-2.4-0.8-4.2-2-5.6-3.4
		c-1.3-1.5-2-3-2-4.7h9.3c0.1,1.3,0.8,2.3,2,3c1.2,0.7,2.7,1.1,4.8,1.1c1.8,0,3.3-0.3,4.2-0.8C222.4,72.8,223,72.1,223,71.2"/>
	<path class="st0" d="M259.9,78.9c-0.4-0.7-0.8-1.5-0.9-2.5c-2.4,2-5.4,3-9.2,3c-3.5,0-6.5-0.8-8.9-2.4c-2.4-1.6-3.5-3.6-3.5-6
		c0-3,1.4-5.2,4.3-6.8c2.9-1.6,7.1-2.4,12.4-2.4h4.4v-1.6c0-1.3-0.4-2.3-1.3-3.1c-0.9-0.8-2.2-1.2-4.1-1.2c-1.7,0-2.9,0.3-3.8,0.9
		c-0.9,0.6-1.4,1.4-1.4,2.5h-9.7c0-1.6,0.7-3.1,2-4.5s3.1-2.5,5.5-3.2c2.4-0.8,5.1-1.2,8-1.2c4.4,0,8.1,0.9,10.7,2.6
		s3.9,4.1,3.9,7.3v12.1c0,2.6,0.5,4.6,1.4,6v0.4L259.9,78.9L259.9,78.9z M251.7,73.7c1.4,0,2.7-0.2,3.9-0.7c1.2-0.5,2.1-1.1,2.7-2
		v-4.8h-3.7c-4.8,0-7.5,1.3-7.7,3.9v0.4c0,0.9,0.4,1.7,1.3,2.3C249.1,73.4,250.3,73.7,251.7,73.7"/>
	<path class="st0" d="M287.3,44.2v6.9h6.3v5.5h-6.3v13.9c0,1,0.3,1.8,0.8,2.2c0.5,0.4,1.6,0.7,3,0.7c1,0,2.1-0.1,2.9-0.2v5.6
		c-2,0.4-3.9,0.7-5.9,0.7c-6.8,0-10.3-2.6-10.5-7.9v-15h-5.4v-5.5h5.4v-6.9C277.6,44.2,287.3,44.2,287.3,44.2z"/>
	<g>
		<path class="st0" d="M208,90.7h4.2v1.9c0,0.9-0.4,1.7-1.2,2.3c-0.8,0.6-1.8,0.9-3,1c-0.9,0-1.7-0.2-2.4-0.5s-1-0.7-1.3-1.1
			c-0.1-0.1-0.1-0.3-0.3-0.4c0-0.1-0.1-0.3-0.1-0.5c-0.1-0.4-0.1-1.1-0.1-2.2c0-1.1,0-1.8,0.1-2.2c0.1-0.4,0.3-0.7,0.4-0.9
			c0.3-0.4,0.8-0.8,1.3-1.1c0.7-0.3,1.4-0.5,2.4-0.5c1.2,0,2.1,0.3,2.7,0.8s1.2,1.2,1.3,2h-1.8c-0.1-0.4-0.4-0.7-0.8-1
			c-0.4-0.3-0.9-0.4-1.4-0.4c-0.4,0-0.8,0.1-1,0.2c-0.3,0.1-0.5,0.3-0.8,0.5c-0.3,0.2-0.4,0.5-0.5,0.8c-0.1,0.3-0.1,1-0.1,1.9
			c0,0.9,0,1.5,0.1,1.9c0.1,0.3,0.3,0.6,0.5,0.8c0.1,0.2,0.4,0.3,0.8,0.5c0.3,0.1,0.7,0.2,1,0.2c0.7,0,1.3-0.2,1.7-0.6
			c0.4-0.4,0.7-0.8,0.7-1.4v-0.5H208V90.7z"/>
		<path class="st0" d="M223.9,86.5h4.6c0.9,0,1.8,0.2,2.4,0.6c0.8,0.5,1.2,1.1,1.2,2c0,1.3-0.8,2.1-2.2,2.6l2.7,4.1h-2.1l-2.5-4
			h-2.2v4h-1.8V86.5z M225.7,90.6h2.7c0.7,0,1.2-0.2,1.6-0.5c0.4-0.3,0.5-0.6,0.5-1c0-0.5-0.3-0.8-0.7-1.1c-0.3-0.2-0.8-0.3-1.3-0.3
			h-2.9V90.6z"/>
		<path class="st0" d="M243.2,91.2c0-1.1,0-1.8,0.1-2.2c0.1-0.4,0.3-0.7,0.4-0.9c0.3-0.4,0.8-0.8,1.3-1.1c0.7-0.3,1.4-0.5,2.4-0.5
			c0.9,0,1.7,0.2,2.4,0.5s1,0.7,1.3,1.1c0.3,0.2,0.4,0.5,0.4,0.9c0.1,0.4,0.1,1.1,0.1,2.2c0,1.1,0,1.8-0.1,2.2
			c-0.1,0.4-0.3,0.7-0.4,0.9c-0.3,0.4-0.8,0.8-1.3,1.1c-0.7,0.3-1.4,0.5-2.4,0.5c-0.9,0-1.7-0.2-2.4-0.5s-1-0.7-1.3-1.1
			c-0.1-0.1-0.1-0.3-0.3-0.4c0-0.1-0.1-0.3-0.1-0.5C243.4,93,243.2,92.2,243.2,91.2 M245.1,91.2c0,0.9,0,1.5,0.1,1.9
			c0.1,0.3,0.3,0.6,0.5,0.8c0.1,0.2,0.4,0.3,0.8,0.5c0.3,0.1,0.7,0.2,1,0.2s0.8-0.1,1-0.2c0.3-0.1,0.5-0.3,0.7-0.5
			c0.3-0.2,0.4-0.5,0.5-0.8c0.1-0.3,0.1-0.9,0.1-1.9c0-0.9,0-1.5-0.1-1.9c-0.1-0.3-0.3-0.6-0.5-0.8c-0.1-0.2-0.4-0.4-0.7-0.5
			c-0.3-0.1-0.7-0.2-1-0.2s-0.8,0.1-1,0.2c-0.3,0.1-0.5,0.3-0.8,0.5c-0.3,0.2-0.4,0.5-0.5,0.8C245.1,89.6,245.1,90.3,245.1,91.2"/>
		<path class="st0" d="M263.1,86.5h1.8v6c0,0.6,0.3,1.1,0.7,1.4s1,0.5,1.7,0.5s1.3-0.2,1.7-0.5c0.4-0.3,0.7-0.8,0.7-1.4v-6h1.8v6.1
			c0,1-0.4,1.8-1.2,2.3c-0.8,0.6-1.8,0.9-3,0.9c-1.2,0-2.2-0.3-3-0.9c-0.8-0.6-1.2-1.3-1.2-2.3V86.5z"/>
		<path class="st0" d="M283.4,86.5h4.3c0.5,0,0.9,0,1.3,0.1c0.4,0.1,0.9,0.3,1.3,0.5c0.4,0.2,0.7,0.5,0.9,0.9
			c0.3,0.4,0.4,0.8,0.4,1.3c0,0.7-0.3,1.3-0.9,1.9c-0.7,0.6-1.6,0.9-2.7,0.9h-2.7v3.6h-1.8V86.5z M285.2,90.9h2.6
			c0.7,0,1.2-0.2,1.4-0.5s0.5-0.6,0.5-1c0-0.3-0.1-0.6-0.1-0.8c-0.1-0.2-0.3-0.3-0.5-0.5c-0.4-0.2-0.8-0.3-1.3-0.3h-2.6V90.9z"/>
	</g>
</g>
</svg>
